# xmcd
# 
# Track frame offsets:
#     150
#     6725
#     24024
#     50401
#     71152
#     85147
#     103985
# 
# Disc length: 1724
# 
# Revision: 1
# Processed by: cddbd v1.5.2PL0 Copyright (c) Steve Scherf et al.
# Submitted via: fre:ac v1.0.27
# 
DISCID=5806ba07
DTITLE=More Dogs - Never let Them Catch You Crying
DYEAR=2005
DGENRE=College/Art Rock
TTITLE0=Never Let Them Catch You Crying
TTITLE1=Duty. Duty? Duty.
TTITLE2=Teanage Bunker
TTITLE3=White People
TTITLE4=Overeater Under Water
TTITLE5=March to the Scaffold
TTITLE6=This is One
EXTD=
EXTT0=
EXTT1=
EXTT2=
EXTT3=
EXTT4=
EXTT5=
EXTT6=
PLAYORDER=
